# xmcd
#
# Track frame offsets: 
#        150
#        11709
#        20455
#        31977
#        43936
#        54580
#        67053
#        77388
#        89170
#        100846
#        110336
#        121730
#        131596
#        141176
#        151905
#        163118
#        174478
#        186086
#
# Disc length: 2634 seconds
#
# Revision: 1
# Processed by: cddbd v1.5.2PL0 Copyright (c) Steve Scherf et al.
# Submitted via: ExactAudioCopy v1.0b4
#
DISCID=ef0a4812
DTITLE=Patsy Cline - At Her Best Volume 1
DYEAR=2000
DGENRE=Country
TTITLE0=Let The Teardrops Fall
TTITLE1=Ain't No Wheels On This Ship
TTITLE2=Walkin' After Midnight
TTITLE3=If I Could Only Stay Asleep
TTITLE4=I DOn't Wanna
TTITLE5=Fingerprints
TTITLE6=Too Many Secrets
TTITLE7=Today, Tomorrow And Forever
TTITLE8=Don't Ever Leave Me Again
TTITLE9=Love, Love, Love Me Honey
TTITLE10=Cry Not For Me
TTITLE11=I'm Blue Again
TTITLE12=I'm Moving Along
TTITLE13=Gotta Lot Of Rhythm In My Soul
TTITLE14=Hungry For Love
TTITLE15=The Heart You Break May Be Your Own
TTITLE16=Never No More
TTITLE17=Dear God
EXTD=
EXTT0=
EXTT1=
EXTT2=
EXTT3=
EXTT4=
EXTT5=
EXTT6=
EXTT7=
EXTT8=
EXTT9=
EXTT10=
EXTT11=
EXTT12=
EXTT13=
EXTT14=
EXTT15=
EXTT16=
EXTT17=
PLAYORDER=
